HIERARCHY
ROOT Hips
{
	OFFSET 0.000000 0.000000 0.000000
	CHANNELS 6 Xposition Yposition Zposition Xrotation Yrotation Zrotation
	JOINT LeftUpLeg_virtual
	{
		OFFSET 0.000000 0.000000 0.000000
		CHANNELS 3 Xrotation Yrotation Zrotation
		JOINT LeftUpLeg
		{
			OFFSET 10.205400 -3.823500 0.155100
			CHANNELS 3 Xrotation Yrotation Zrotation
			JOINT LeftLeg
			{
				OFFSET 0.708757 -12.982077 0.567790
				CHANNELS 3 Xrotation Yrotation Zrotation
				JOINT LeftFoot
				{
					OFFSET -0.708756 -10.717838 -2.184338
					CHANNELS 3 Xrotation Yrotation Zrotation
					JOINT LeftToeBase
					{
						OFFSET 0.108149 -7.191104 7.560241
						CHANNELS 3 Xrotation Yrotation Zrotation
						JOINT LeftToe_End
						{
							OFFSET 0.070230 0.081724 4.490308
							CHANNELS 3 Xrotation Yrotation Zrotation
							End Site
							{
								OFFSET 0 0 0
							}
						}
					}
				}
			}
		}
	}
	JOINT RightUpLeg_virtual
	{
		OFFSET 0.000000 0.000000 0.000000
		CHANNELS 3 Xrotation Yrotation Zrotation
		JOINT RightUpLeg
		{
			OFFSET -10.205400 -3.823500 0.005500
			CHANNELS 3 Xrotation Yrotation Zrotation
			JOINT RightLeg
			{
				OFFSET -0.708756 -12.982134 0.610632
				CHANNELS 3 Xrotation Yrotation Zrotation
				JOINT RightFoot
				{
					OFFSET 0.708754 -10.717769 -1.945823
					CHANNELS 3 Xrotation Yrotation Zrotation
					JOINT RightToeBase
					{
						OFFSET -0.108140 -7.191069 7.372968
						CHANNELS 3 Xrotation Yrotation Zrotation
						JOINT RightToe_End
						{
							OFFSET -0.070227 0.081735 4.479403
							CHANNELS 3 Xrotation Yrotation Zrotation
							End Site
							{
								OFFSET 0 0 0
							}
						}
					}
				}
			}
		}
	}
	JOINT Spine_virtual
	{
		OFFSET 0.000000 0.000000 0.000000
		CHANNELS 3 Xrotation Yrotation Zrotation
		JOINT Spine
		{
			OFFSET 0.000000 6.876099 0.125700
			CHANNELS 3 Xrotation Yrotation Zrotation
			JOINT Spine1
			{
				OFFSET 0.000000 5.730043 0.104720
				CHANNELS 3 Xrotation Yrotation Zrotation
				JOINT Spine1_split
				{
					OFFSET 0.000000 5.730043 0.104720
					CHANNELS 3 Xrotation Yrotation Zrotation
					JOINT Spine2
					{
						OFFSET 0.000000 5.730043 0.104720
						CHANNELS 3 Xrotation Yrotation Zrotation
						JOINT Neck_virtual
						{
							OFFSET 0.000000 0.000000 0.000000
							CHANNELS 3 Xrotation Yrotation Zrotation
							JOINT Neck
							{
								OFFSET 0.000000 10.314075 0.188496
								CHANNELS 3 Xrotation Yrotation Zrotation
								JOINT Head
								{
									OFFSET 0.000000 7.643700 -2.377400
									CHANNELS 3 Xrotation Yrotation Zrotation
									JOINT HeadTop_End
									{
										OFFSET 0.000000 43.788605 -13.619600
										CHANNELS 3 Xrotation Yrotation Zrotation
										End Site
										{
											OFFSET 0 0 0
										}
									}
								}
							}
						}
						JOINT LeftShoulder_virtual
						{
							OFFSET 0.000000 0.000000 0.000000
							CHANNELS 3 Xrotation Yrotation Zrotation
							JOINT LeftShoulder
							{
								OFFSET 2.196100 4.412489 0.087492
								CHANNELS 3 Xrotation Yrotation Zrotation
								JOINT LeftShoulder_split
								{
									OFFSET 2.196100 4.412489 0.087492
									CHANNELS 3 Xrotation Yrotation Zrotation
									JOINT LeftArm
									{
										OFFSET 8.771219 -2.981674 -0.026999
										CHANNELS 3 Xrotation Yrotation Zrotation
										JOINT LeftForeArm
										{
											OFFSET 8.512804 0.000000 -0.000000
											CHANNELS 3 Xrotation Yrotation Zrotation
											JOINT LeftHand
											{
												OFFSET 18.484802 0.000000 -0.000000
												CHANNELS 3 Xrotation Yrotation Zrotation
												End Site
												{
													OFFSET 0 0 0
												}
											}
										}
									}
								}
							}
						}
						JOINT RightShoulder_virtual
						{
							OFFSET 0.000000 0.000000 0.000000
							CHANNELS 3 Xrotation Yrotation Zrotation
							JOINT RightShoulder
							{
								OFFSET -2.196100 4.412496 0.070690
								CHANNELS 3 Xrotation Yrotation Zrotation
								JOINT RightShoulder_split
								{
									OFFSET -2.196100 4.412496 0.070690
									CHANNELS 3 Xrotation Yrotation Zrotation
									JOINT RightArm
									{
										OFFSET -8.771282 -2.981682 -0.094208
										CHANNELS 3 Xrotation Yrotation Zrotation
										JOINT RightForeArm
										{
											OFFSET -8.494598 0.000000 0.000000
											CHANNELS 3 Xrotation Yrotation Zrotation
											JOINT RightHand
											{
												OFFSET -18.483803 0.000000 0.000001
												CHANNELS 3 Xrotation Yrotation Zrotation
												End Site
												{
													OFFSET 0 0 0
												}
											}
										}
									}
								}
							}
						}
					}
				}
			}
		}
	}
}
MOTION
Frames: 7
Frame Time: 0.03333333
-1.092692 26.503622 -49.683289 0.000000 0.000000 0.000000 164.202351 -71.538261 158.354917 -51.626787 -9.664497 37.020981 40.121685 -7.483385 -1.619055 19.880094 5.981425 -13.708473 0.923284 2.256436 0.816968 0.000000 0.000000 0.000000 159.846535 -72.072511 154.554053 -43.394401 2.230261 -29.080640 50.260408 3.283557 2.494050 -1.519652 -0.441595 14.828542 -6.916549 0.721083 0.504450 0.000000 0.000000 0.000000 162.848703 -74.044674 157.266827 5.464712 8.394589 -0.116009 -0.727598 12.511377 2.744068 -0.050798 2.536842 1.315087 0.000000 0.000000 0.000000 9.247120 14.627214 0.232441 5.019800 9.157760 -5.735133 -8.564170 16.342314 7.086318 0.000000 0.000000 0.000000 6.523979 15.318798 0.369537 6.620228 10.283648 -11.337499 13.714228 0.671520 -2.159070 -51.959609 -35.264041 -46.774969 28.820960 -86.776085 25.214919 0.000000 0.000000 0.000000 7.568297 15.009146 1.178178 -13.535210 1.803151 -3.237308 11.114688 1.122063 -6.523331 -91.385110 38.642721 110.332984 -8.038445 41.150087 4.752586 0.000000 0.000000 0.000000 
-0.222188 26.622452 -51.815018 0.000000 0.000000 0.000000 163.178506 -72.764123 157.057017 -51.808289 -8.600921 36.121548 38.757243 -7.105295 -1.315821 20.353250 5.267900 -15.804656 0.732328 2.193902 0.259006 0.000000 0.000000 0.000000 161.593123 -72.559866 156.190184 -43.910757 -1.840943 -22.776915 55.257105 0.728563 3.374933 -4.763461 -2.734388 12.615270 -7.904576 0.749787 0.641307 0.000000 0.000000 0.000000 164.602109 -72.856139 158.553771 6.006970 7.915622 -0.004193 -0.824492 11.661259 2.992080 0.042182 2.499204 1.195190 0.000000 0.000000 0.000000 9.318936 13.900576 0.417048 4.075421 9.971928 -6.613915 -10.109759 17.437522 7.561086 0.000000 0.000000 0.000000 6.666511 14.468670 0.617444 6.212149 9.890880 -10.934635 14.311253 3.727655 -3.002003 -51.877493 -35.529585 -47.224758 38.791872 -87.440287 34.971972 0.000000 0.000000 0.000000 7.551319 14.169158 1.359749 -13.569366 0.944958 -3.790557 11.736078 0.823858 -7.629965 -91.894717 39.837632 110.716369 -7.868442 40.802993 4.566905 0.000000 0.000000 0.000000 
0.436073 26.695585 -53.176643 0.000000 0.000000 0.000000 161.436616 -74.524296 155.074445 -53.344645 -7.970123 34.635220 39.929487 -6.921426 -1.131544 19.805681 4.339847 -17.074749 -0.932817 2.150640 -0.415439 0.000000 0.000000 0.000000 162.616805 -73.065682 157.015326 -43.317729 -5.151035 -17.976957 57.806063 -1.420647 3.557625 -8.578766 -4.884517 10.732508 -7.794511 0.908282 0.917083 0.000000 0.000000 0.000000 165.324319 -71.982886 158.981409 6.302373 7.747142 0.131228 -0.904154 11.010765 3.154394 0.040258 2.253393 1.070262 0.000000 0.000000 0.000000 9.553312 13.353949 0.494459 3.178469 10.511698 -7.487305 -11.395300 18.405429 7.653686 0.000000 0.000000 0.000000 6.813494 13.811132 0.727715 5.845031 9.686471 -10.777852 14.293355 6.197537 -2.907400 -52.209464 -35.669126 -47.827122 34.709963 -87.329952 30.615066 0.000000 0.000000 0.000000 7.587291 13.532591 1.476864 -13.586454 0.286449 -4.234367 11.793884 0.303071 -8.375059 -92.274544 41.037730 110.829662 -7.534445 40.613654 4.249746 0.000000 0.000000 0.000000 
0.759778 26.754358 -53.900696 0.000000 0.000000 0.000000 158.623740 -76.356665 152.146808 -55.478358 -7.109354 33.658906 42.297169 -6.777893 -1.343893 19.140142 3.783404 -16.922680 -1.979080 2.179466 -1.363881 0.000000 0.000000 0.000000 162.261772 -73.617705 156.450469 -42.525079 -7.233551 -15.492858 57.699177 -2.640646 3.129611 -11.831427 -6.395363 9.334930 -6.296435 1.142119 1.416388 0.000000 0.000000 0.000000 165.182429 -71.661088 158.858520 6.414660 7.812146 0.122066 -0.921374 10.576815 3.178526 -0.059200 1.820474 0.876890 0.000000 0.000000 0.000000 9.780512 13.010154 0.470572 2.371770 10.744397 -8.139764 -12.073692 19.101947 7.535347 0.000000 0.000000 0.000000 6.935641 13.354935 0.697029 5.526339 9.814456 -10.607449 13.554231 7.963077 -2.130592 -52.792731 -35.510010 -48.507635 22.289281 -86.407022 17.891452 0.000000 0.000000 0.000000 7.629276 13.112690 1.512109 -13.577567 -0.254684 -4.513147 11.480964 0.049398 -9.103615 -92.787170 42.229270 111.016283 -7.040623 40.020629 3.840691 0.000000 0.000000 0.000000 
0.806670 26.812740 -54.136681 0.000000 0.000000 0.000000 156.190089 -77.474337 149.806184 -57.180062 -5.680889 33.745902 43.944170 -6.832870 -1.849047 18.590433 3.674423 -15.879285 -1.757501 2.239202 -2.354101 0.000000 0.000000 0.000000 161.721463 -73.963798 155.951783 -42.554066 -7.791222 -15.550997 56.680834 -2.464192 2.501064 -13.624636 -6.800635 8.660431 -3.659417 1.340449 2.033147 0.000000 0.000000 0.000000 164.841233 -71.798703 158.808032 6.518056 7.943049 -0.112243 -0.863997 10.349614 3.115899 -0.104617 1.413844 0.632728 0.000000 0.000000 0.000000 9.846936 12.828643 0.406337 1.829134 10.694526 -8.503695 -12.011539 19.412542 7.332749 0.000000 0.000000 0.000000 6.993548 13.086568 0.599482 5.267534 10.213523 -10.268033 12.225178 8.751014 -1.341832 -53.309630 -35.102166 -49.080291 14.305920 -85.036552 9.614216 0.000000 0.000000 0.000000 7.623882 12.889476 1.512520 -13.556874 -0.785314 -4.652709 10.934694 0.056878 -9.586364 -93.440055 43.395668 111.508500 -6.473710 38.874879 3.462575 0.000000 0.000000 0.000000 
0.647346 26.878193 -54.055389 0.000000 0.000000 0.000000 155.122557 -77.850127 149.056448 -57.656250 -3.601044 34.738240 43.957544 -6.933766 -2.409771 17.986355 4.044772 -14.158993 -0.663840 2.263102 -3.247601 0.000000 0.000000 0.000000 160.510497 -74.130748 154.867422 -43.398841 -7.081909 -17.384838 56.093335 -1.024905 2.018670 -13.756889 -6.335539 9.045150 -1.270380 1.398419 2.545871 0.000000 0.000000 0.000000 164.327467 -72.225214 158.646443 6.672271 7.981927 -0.565444 -0.759789 10.272574 3.027952 -0.118385 1.208022 0.532505 0.000000 0.000000 0.000000 9.700628 12.754385 0.370419 1.609783 10.314289 -8.535084 -11.266642 19.142655 7.162572 0.000000 0.000000 0.000000 6.950243 12.963367 0.545229 5.085931 10.754250 -9.736065 10.613993 8.219306 -0.680102 -53.488468 -34.496731 -49.385584 11.253539 -83.933599 6.291772 0.000000 0.000000 0.000000 7.550119 12.804279 1.549153 -13.526197 -1.431064 -4.707803 10.436902 0.281840 -10.050628 -93.889939 44.266108 112.194395 -5.971878 37.569551 3.236223 0.000000 0.000000 0.000000 
0.463021 26.964035 -53.762520 0.000000 0.000000 0.000000 156.323045 -77.492772 150.829756 -57.151396 -1.387632 36.103014 42.801568 -7.321314 -2.711348 17.826305 4.243026 -12.675032 0.352241 2.222250 -3.661918 0.000000 0.000000 0.000000 159.496911 -74.309248 154.185018 -44.523042 -5.586282 -19.730373 56.464979 0.877128 1.806781 -12.650500 -5.401955 10.331130 -0.133354 1.149788 2.727823 0.000000 0.000000 0.000000 163.902164 -72.639260 158.583619 6.832673 7.836669 -1.126759 -0.655957 10.257767 2.977025 0.127853 1.161945 0.545442 0.000000 0.000000 0.000000 9.315855 12.737978 0.425537 1.696153 9.707033 -8.257188 -10.198573 18.369039 7.164607 0.000000 0.000000 0.000000 6.777818 12.916264 0.569468 4.993823 11.297517 -9.103449 9.250567 6.903889 -0.300782 -53.214936 -33.860246 -49.417836 11.612846 -83.454646 6.361876 0.000000 0.000000 0.000000 7.378176 12.807271 1.653057 -13.530483 -2.241771 -4.719716 10.241392 0.786353 -10.530422 -93.853745 44.432956 112.781129 -5.680574 36.441351 3.222743 0.000000 0.000000 0.000000 
